# xmcd
#
# Track frame offsets:
#	150
#	12343
#	24848
#	38374
#	48893
#	59751
#	71817
#	85176
#	96871
#	108553
#	123589
#	136116
#	146614
#	161620
#	174590
#	187560
#	202511
#	214627
#	230688
#	245720
#
# Disc length: 3424 seconds
#
# Revision: 2
# Processed by: cddbd v1.5.2PL0 Copyright (c) Steve Scherf et al.
# Submitted via: audiograbber 1.83.01
#
DISCID=090d5e14
DTITLE=Various Artist - Inspirations Borrowed By Bob Dylan
DYEAR=2014
DGENRE=Blues
TTITLE0=Clarence "Tom" Ashley And Gwen Foster - |House Of The Risin' Sun
TTITLE1=Wilbert Harrison - Let's Stick Together
TTITLE2=Elvis Presley - Can't Help Falling In Love
TTITLE3=Woodie Guthrie - This Land Is Your Land
TTITLE4=Johnny Cash And The Tennessee Two - Train Of Love
TTITLE5=Robert Johnson - Cross Road Blues
TTITLE6=Big Joe Turner - Boogie Woogie Country Girl
TTITLE7=Roy Acuff - Freight Train Blues
TTITLE8=Jill Corey With Jimmy Carrol And His Orchestra - Let It Be Me
TTITLE9=Emry Arthur - Man Of Constant Sorrow
TTITLE10=Jimmie Rodgers - My Blue Eyed Jane
TTITLE11=Bob Luman - Red Cadillac And A Black Moustache
TTITLE12=Bradley Kincaid - Barbry Allen (Barbara Allen)
TTITLE13=Tony Martin - When Did You Leave Heaven
TTITLE14=Blind Lemon Jefferson - See That My Grave Is Kept Clean
TTITLE15=Bo Carter - Corinne, Corinna
TTITLE16=Grayson And Whitter - Handsome Molly
TTITLE17=John Jacob Niles - The Gipsy Laddie (Blackjack Davey)
TTITLE18=Waring's Pennsylvanian's - Stack O'Lee Blues
TTITLE19=Everly Brothers - Take A Message To Mary
EXTD=Disc 1-2
EXTT0=Disc 1-2
EXTT1=
EXTT2=
EXTT3=
EXTT4=
EXTT5=
EXTT6=
EXTT7=
EXTT8=
EXTT9=
EXTT10=
EXTT11=
EXTT12=
EXTT13=
EXTT14=
EXTT15=
EXTT16=
EXTT17=
EXTT18=
EXTT19=
PLAYORDER=
